<svg xmlns="http://www.w3.org/2000/svg" width="174.431" height="169.148" viewBox="0 0 174.431 169.148">
  <g id="Group_1713" data-name="Group 1713" transform="translate(-13.44 -29.108)">
    <g id="Floor" transform="translate(13.44 97.548)">
      <ellipse id="Floor-2" data-name="Floor" cx="87.215" cy="50.354" rx="87.215" ry="50.354" transform="translate(0 0)" fill="#daf4ff"/>
    </g>
    <g id="Shadow" transform="translate(18.74 104.485)">
      <path id="Shadow-2" data-name="Shadow" d="M377.065,372.666c-5.719-3.3-5.719-8.655,0-11.957s14.991-3.3,20.71,0,5.719,8.655,0,11.957S382.784,375.968,377.065,372.666Z" transform="translate(-245.061 -311.778)" fill="#e0e0e0"/>
      <path id="Shadow-3" data-name="Shadow" d="M43.44,294.083,28.4,285.4a.936.936,0,0,1,0-1.773L115.9,233.1a3.4,3.4,0,0,1,3.072,0l15.044,8.685a.936.936,0,0,1,0,1.773l-87.5,50.521A3.394,3.394,0,0,1,43.44,294.083Z" transform="translate(-27.76 -232.736)" fill="#e0e0e0"/>
    </g>
    <g id="Device" transform="translate(29.916 29.108)">
      <g id="Device-2" data-name="Device" transform="translate(0)">
        <g id="Group_1686" data-name="Group 1686" transform="translate(36.22 83.439)">
          <g id="Group_1684" data-name="Group 1684" transform="translate(0.002)">
            <path id="Path_2013" data-name="Path 2013" d="M178.16,292.321l12.933-7.478a3.394,3.394,0,0,0,2-2.787c0-1.009.006-1.8.006-1.8l-13.419-7.566a2.845,2.845,0,0,1-1.287-2.229V254.516L155.8,267.569v15.945a2.846,2.846,0,0,0,1.287,2.23l11.415,6.577A10.671,10.671,0,0,0,178.16,292.321Z" transform="translate(-155.803 -254.516)" fill="#27debf"/>
          </g>
          <g id="Group_1685" data-name="Group 1685" transform="translate(0.002)" opacity="0.6">
            <path id="Path_2014" data-name="Path 2014" d="M178.16,292.321l12.933-7.478a3.394,3.394,0,0,0,2-2.787c0-1.009.006-1.8.006-1.8l-13.419-7.566a2.845,2.845,0,0,1-1.287-2.229V254.516L155.8,267.569v15.945a2.846,2.846,0,0,0,1.287,2.23l11.415,6.577A10.671,10.671,0,0,0,178.16,292.321Z" transform="translate(-155.803 -254.516)"/>
          </g>
          <path id="Path_2015" data-name="Path 2015" d="M161.223,304.323v1.791l-4.14-2.386a2.848,2.848,0,0,1-1.286-2.23V285.556l4.3-2.483c.089,1.093.186,2.223.275,3.323l-3.018,1.746V300.6a2.828,2.828,0,0,0,1.286,2.23Z" transform="translate(-155.797 -272.502)" opacity="0.3"/>
          <path id="Path_2016" data-name="Path 2016" d="M160.012,287.02a2.846,2.846,0,0,0,1.287,2.23l9.854,5.676a10.674,10.674,0,0,0,9.656,0l12.939-7.477c2.667-1.539,2.667-4.034,0-5.574l-9.861-5.68a2.846,2.846,0,0,1-1.287-2.23V261.507L160.012,274.56Z" transform="translate(-158.452 -258.919)" fill="#27debf"/>
          <path id="Path_2017" data-name="Path 2017" d="M160.012,287.02a2.846,2.846,0,0,0,1.287,2.23l9.854,5.676a10.674,10.674,0,0,0,9.656,0l12.939-7.477c2.667-1.539,2.667-4.034,0-5.574l-9.861-5.68a2.846,2.846,0,0,1-1.287-2.23V261.507L160.012,274.56Z" transform="translate(-158.452 -258.919)" opacity="0.3"/>
          <path id="Path_2018" data-name="Path 2018" d="M186.511,277.712v0l-2.622-1.514a2.846,2.846,0,0,1-1.287-2.23V261.507l-22.59,13.053v12.46a2.846,2.846,0,0,0,1.287,2.23l2.577,1.488Z" transform="translate(-158.452 -258.919)" opacity="0.5"/>
          <path id="Path_2019" data-name="Path 2019" d="M223.3,324.058v1.8a3.4,3.4,0,0,1-2,2.787l-12.935,7.473a9.678,9.678,0,0,1-4.608,1.145v-1.791a9.678,9.678,0,0,0,4.608-1.145l12.935-7.481A3.39,3.39,0,0,0,223.3,324.058Z" transform="translate(-186.002 -298.316)" fill="#27debf"/>
          <path id="Path_2020" data-name="Path 2020" d="M223.3,324.058v1.8a3.4,3.4,0,0,1-2,2.787l-12.935,7.473a9.678,9.678,0,0,1-4.608,1.145v-1.791a9.678,9.678,0,0,0,4.608-1.145l12.935-7.481A3.39,3.39,0,0,0,223.3,324.058Z" transform="translate(-186.002 -298.316)" opacity="0.5"/>
        </g>
        <path id="Path_2021" data-name="Path 2021" d="M59.463,156.134a3.451,3.451,0,0,0,3.119-.058l87.359-50.436a3.556,3.556,0,0,0,1.609-2.787V32.183a3.023,3.023,0,0,0-4.628-2.672L59.563,79.947a3.557,3.557,0,0,0-1.609,2.787V153.4A3.451,3.451,0,0,0,59.463,156.134Z" transform="translate(-57.952 -29.109)" fill="#27debf"/>
        <path id="Path_2022" data-name="Path 2022" d="M67.719,159.348l87.359-50.436a3.557,3.557,0,0,0,1.609-2.787V35.454c0-1.026-.721-1.442-1.609-.929L67.72,84.961a3.557,3.557,0,0,0-1.609,2.787v70.67C66.11,159.445,66.831,159.861,67.719,159.348Z" transform="translate(-63.09 -32.381)" fill="#27debf"/>
        <path id="Path_2023" data-name="Path 2023" d="M67.719,159.348l87.359-50.436a3.557,3.557,0,0,0,1.609-2.787V35.454c0-1.026-.721-1.442-1.609-.929L67.72,84.961a3.557,3.557,0,0,0-1.609,2.787v70.67C66.11,159.445,66.831,159.861,67.719,159.348Z" transform="translate(-63.09 -32.381)" opacity="0.5"/>
        <path id="Path_2024" data-name="Path 2024" d="M62.344,361.36a3.008,3.008,0,0,1-4.393-2.795v-6.435l3.018,1.747v6.435C60.969,361.249,61.563,361.672,62.344,361.36Z" transform="translate(-57.951 -232.557)" fill="#27debf"/>
        <path id="Path_2025" data-name="Path 2025" d="M62.344,361.36a3.008,3.008,0,0,1-4.393-2.795v-6.435l3.018,1.747v6.435C60.969,361.249,61.563,361.672,62.344,361.36Z" transform="translate(-57.951 -232.557)" opacity="0.5"/>
        <path id="Path_2026" data-name="Path 2026" d="M66.1,267.851l0,6.432c0,1.026.721,1.442,1.609.929l87.359-50.435a3.557,3.557,0,0,0,1.609-2.787v-6.446Z" transform="translate(-63.085 -146.53)" fill="#27debf"/>
        <path id="Path_2027" data-name="Path 2027" d="M66.11,267.837v6.446c0,1.026.721,1.442,1.609.929l87.359-50.435a3.557,3.557,0,0,0,1.609-2.787v-6.446Z" transform="translate(-63.09 -146.53)" opacity="0.3"/>
        <path id="Path_2028" data-name="Path 2028" d="M74.264,154.048V97.169A2.134,2.134,0,0,1,75.23,95.5L157.836,47.8c.533-.308.965-.058.965.557l0,56.88a2.135,2.135,0,0,1-.966,1.672L75.23,154.605C74.7,154.913,74.264,154.663,74.264,154.048Z" transform="translate(-68.225 -40.8)" fill="#27debf"/>
        <path id="Path_2029" data-name="Path 2029" d="M74.264,154.048V97.169A2.134,2.134,0,0,1,75.23,95.5L157.836,47.8c.533-.308.965-.058.965.557l0,56.88a2.135,2.135,0,0,1-.966,1.672L75.23,154.605C74.7,154.913,74.264,154.663,74.264,154.048Z" transform="translate(-68.225 -40.8)" fill="#263238"/>
        <path id="Path_2030" data-name="Path 2030" d="M185.883,291.375a3.338,3.338,0,0,0-1.51,2.616c0,.963.676,1.353,1.51.871a3.338,3.338,0,0,0,1.51-2.615C187.393,291.284,186.717,290.894,185.883,291.375Z" transform="translate(-137.575 -194.162)" fill="#27debf"/>
        <path id="Path_2031" data-name="Path 2031" d="M61.444,171.418a3.415,3.415,0,0,0-.476,1.591v65.955l-3.018-1.747,0-65.948a3.328,3.328,0,0,1,.474-1.591Z" transform="translate(-57.951 -117.644)" opacity="0.7"/>
        <path id="Path_2032" data-name="Path 2032" d="M152.34,31.916c-.114-.83-.784-1.13-1.595-.666L63.39,81.689a3.308,3.308,0,0,0-1.138,1.195l-3.018-1.743a3.311,3.311,0,0,1,1.138-1.195l87.356-50.435a3.008,3.008,0,0,1,4.612,2.4Z" transform="translate(-58.759 -29.108)" opacity="0.3"/>
      </g>
    </g>
    <g id="Window" transform="translate(43.83 40.526)">
      <g id="Window-2" data-name="Window">
        <g id="Window-3" data-name="Window">
          <g id="Window-4" data-name="Window">
            <path id="Path_2033" data-name="Path 2033" d="M179.921,60.04a.792.792,0,0,0-.821.065L96.668,107.7a2.491,2.491,0,0,0-1.128,1.953v56.532a1.1,1.1,0,0,0,.475.98c.185.1,1.153.663,1.441.817a.647.647,0,0,0,.654-.038l82.43-47.618a2.489,2.489,0,0,0,1.129-1.952V61.573a.78.78,0,0,0-.35-.741C181.116,60.726,180.129,60.165,179.921,60.04Z" transform="translate(-95.539 -59.953)" fill="#27debf"/>
            <g id="Group_1687" data-name="Group 1687" transform="translate(0 0.815)">
              <g id="Path_2034" data-name="Path 2034" transform="translate(-97.992 -62.153)" fill="#fafafa" stroke-miterlimit="10">
                <path d="M 100.1911163330078 168.9422760009766 C 100.0891571044922 168.9422760009766 99.93499755859375 168.7224884033203 99.93499755859375 168.3912200927734 L 99.93499755859375 111.8591766357422 C 99.93499755859375 111.3192367553711 100.345100402832 110.6087493896484 100.8125991821289 110.3387680053711 L 183.2439575195313 62.74005126953125 C 183.3750762939453 62.66439437866211 183.459228515625 62.65309524536133 183.4976959228516 62.65309524536133 C 183.6097564697266 62.65309524536133 183.6218566894531 62.86645126342773 183.6218566894531 62.95817947387695 L 183.6218566894531 119.7641677856445 C 183.6218566894531 120.303596496582 183.2115173339844 121.013053894043 182.7437133789063 121.2823944091797 L 100.3135375976563 168.9003448486328 C 100.2667999267578 168.9272308349609 100.2230682373047 168.9422760009766 100.1911163330078 168.9422760009766 Z" stroke="none"/>
                <path d="M 183.1218566894531 63.38790893554688 L 101.0626525878906 110.7717361450195 C 100.7517700195313 110.9512939453125 100.4349975585938 111.5000915527344 100.4349975585938 111.8591690063477 L 100.4349975585938 168.2527465820313 L 182.4942016601563 120.8490905761719 C 182.8051147460938 120.6700973510742 183.1218566894531 120.12255859375 183.1218566894531 119.7641525268555 L 183.1218566894531 63.38790893554688 M 183.4976806640625 62.153076171875 C 183.8677978515625 62.153076171875 184.1218566894531 62.44793701171875 184.1218566894531 62.95817565917969 L 184.1218566894531 119.7641525268555 C 184.1218566894531 120.4833984375 183.6161804199219 121.3570022583008 182.9931945800781 121.715705871582 L 100.5636444091797 169.3332977294922 C 100.4331359863281 169.4083862304688 100.3077239990234 169.4422760009766 100.1911163330078 169.4422760009766 C 99.75076293945313 169.4422760009766 99.43499755859375 168.9595794677734 99.43499755859375 168.3912200927734 L 99.43499755859375 111.8591690063477 C 99.43499755859375 111.1399230957031 99.93954467773438 110.2655868530273 100.5625305175781 109.9057846069336 L 182.9939270019531 62.30703735351563 C 183.1749572753906 62.20259094238281 183.3460693359375 62.153076171875 183.4976806640625 62.153076171875 Z" stroke="none" fill="#e0e0e0"/>
              </g>
              <path id="Path_2035" data-name="Path 2035" d="M96.013,257.965c.122.065,1,.565,1.383.784a1.149,1.149,0,0,1-.415-.947V204.96l-1.444-.845v52.871A1.1,1.1,0,0,0,96.013,257.965Z" transform="translate(-95.538 -151.565)" fill="#f0f0f0"/>
            </g>
            <g id="Group_1688" data-name="Group 1688">
              <path id="Path_2036" data-name="Path 2036" d="M184.121,62.95c0-.713-.507-1-1.127-.643l-82.431,47.6a2.492,2.492,0,0,0-1.128,1.953v3.689l84.685-48.9Z" transform="translate(-97.992 -61.339)" fill="#27debf"/>
              <path id="Path_2037" data-name="Path 2037" d="M181.124,60.921l-82.43,47.6a2.32,2.32,0,0,0-.794.837l-1.433-.83a2.254,2.254,0,0,1,.785-.824l82.433-47.6a.793.793,0,0,1,.819-.067c.2.124,1.139.656,1.376.784A.816.816,0,0,0,181.124,60.921Z" transform="translate(-96.123 -59.952)" fill="#fff" opacity="0.4"/>
              <path id="Path_2038" data-name="Path 2038" d="M95.538,195.968V192.3a2.326,2.326,0,0,1,.343-1.128l1.437.826a2.277,2.277,0,0,0-.337,1.121v3.688Z" transform="translate(-95.538 -142.6)" opacity="0.15"/>
            </g>
          </g>
        </g>
        <g id="Group_1693" data-name="Group 1693" transform="translate(18.55 44.027)">
          <g id="Group_1689" data-name="Group 1689">
            <path id="Path_2039" data-name="Path 2039" d="M195.845,179.087l-49.371,28.5a1.821,1.821,0,0,0-.824,1.427v14.154a1.817,1.817,0,0,0,.825,1.426l1.442.83a1.825,1.825,0,0,0,1.648,0l49.364-28.5a1.821,1.821,0,0,0,.824-1.427l.006-14.158a1.817,1.817,0,0,0-.824-1.426l-1.443-.83A1.824,1.824,0,0,0,195.845,179.087Z" transform="translate(-145.65 -178.89)" fill="#27debf"/>
            <path id="Path_2040" data-name="Path 2040" d="M200.169,181.208c-.057-.426-.4-.582-.818-.342l-49.369,28.5a1.655,1.655,0,0,0-.582.616l-3.09-1.785a1.681,1.681,0,0,1,.579-.609l49.373-28.5a1.821,1.821,0,0,1,1.648,0l1.443.83A1.84,1.84,0,0,1,200.169,181.208Z" transform="translate(-146.065 -178.89)" fill="#fff" opacity="0.5"/>
            <path id="Path_2041" data-name="Path 2041" d="M149.426,275.365a1.837,1.837,0,0,1-1.507-.065l-1.443-.83a1.819,1.819,0,0,1-.826-1.427V258.891a1.706,1.706,0,0,1,.244-.818l3.09,1.785a1.653,1.653,0,0,0-.244.811v14.156C148.741,275.3,149.038,275.514,149.426,275.365Z" transform="translate(-145.651 -228.762)" fill="#263238"/>
            <path id="Path_2042" data-name="Path 2042" d="M154.826,212.542l49.371-28.5c.455-.263.824-.05.823.476l-.006,14.158a1.821,1.821,0,0,1-.824,1.427l-49.364,28.5c-.455.262-.824.05-.824-.476V213.969A1.82,1.82,0,0,1,154.826,212.542Z" transform="translate(-150.91 -182.061)" fill="#27debf"/>
            <path id="Path_2043" data-name="Path 2043" d="M183.172,199.838l-36.285,20.948a1.681,1.681,0,0,0-.579.609l3.09,1.785a1.655,1.655,0,0,1,.582-.616l36.276-20.944Z" transform="translate(-146.065 -192.084)" fill="#455a64"/>
            <path id="Path_2044" data-name="Path 2044" d="M191.1,204.652,154.826,225.6a1.82,1.82,0,0,0-.824,1.427v14.154c0,.525.369.738.824.476L191.1,220.709Z" transform="translate(-150.91 -195.116)" fill="#37474f"/>
          </g>
          <g id="Group_1690" data-name="Group 1690" transform="translate(10.877 17.746)">
            <path id="Path_2045" data-name="Path 2045" d="M176.438,237.841l18.719-10.807c.776-.448,1.405-.13,1.405.711a3.014,3.014,0,0,1-1.406,2.334L176.44,240.885c-.776.448-1.406.13-1.406-.71A3.012,3.012,0,0,1,176.438,237.841Z" transform="translate(-175.034 -226.83)" fill="#27debf"/>
          </g>
          <g id="Group_1691" data-name="Group 1691" transform="translate(14.538 25.268)">
            <path id="Path_2046" data-name="Path 2046" d="M186.5,266.225a.039.039,0,0,1,.055.01.127.127,0,0,1,.023.084v2.108a3.35,3.35,0,0,1-.053.606,2.459,2.459,0,0,1-.156.532,1.79,1.79,0,0,1-.26.436,1.321,1.321,0,0,1-.362.308.664.664,0,0,1-.363.11.36.36,0,0,1-.259-.136.832.832,0,0,1-.155-.353,2.555,2.555,0,0,1-.051-.546v-2.108a.274.274,0,0,1,.024-.111.142.142,0,0,1,.054-.073l.235-.135a.038.038,0,0,1,.055.009.131.131,0,0,1,.023.084v2.082a1.489,1.489,0,0,0,.032.341.419.419,0,0,0,.089.193.173.173,0,0,0,.139.059.4.4,0,0,0,.177-.058.74.74,0,0,0,.178-.146.828.828,0,0,0,.14-.22,1.352,1.352,0,0,0,.091-.3,1.931,1.931,0,0,0,.033-.379v-2.082a.283.283,0,0,1,.023-.111.144.144,0,0,1,.056-.073Z" transform="translate(-184.925 -259.159)" fill="#fafafa"/>
            <path id="Path_2047" data-name="Path 2047" d="M191.572,268.415a.126.126,0,0,0-.021-.081.091.091,0,0,0-.07-.026.567.567,0,0,0-.135.016l-.214.041a.437.437,0,0,1-.211-.007.265.265,0,0,1-.135-.1.487.487,0,0,1-.071-.193,1.669,1.669,0,0,1-.02-.273,1.412,1.412,0,0,1,.041-.327,1.6,1.6,0,0,1,.117-.332,1.487,1.487,0,0,1,.187-.3.92.92,0,0,1,.252-.217.6.6,0,0,1,.253-.089.313.313,0,0,1,.19.039.318.318,0,0,1,.121.143.594.594,0,0,1,.049.216.24.24,0,0,1-.022.11.152.152,0,0,1-.057.073l-.222.128c-.029.017-.051.02-.065.01l-.047-.037a.13.13,0,0,0-.07-.024.262.262,0,0,0-.13.047.532.532,0,0,0-.153.134.319.319,0,0,0-.067.2.185.185,0,0,0,.016.086.072.072,0,0,0,.06.034.491.491,0,0,0,.125-.007q.079-.012.207-.04a.33.33,0,0,1,.362.1.79.79,0,0,1,.106.456,1.331,1.331,0,0,1-.043.326,1.631,1.631,0,0,1-.126.335,1.47,1.47,0,0,1-.2.3,1.043,1.043,0,0,1-.27.225.591.591,0,0,1-.271.092.318.318,0,0,1-.2-.053.352.352,0,0,1-.125-.159.613.613,0,0,1-.046-.225.241.241,0,0,1,.022-.11.155.155,0,0,1,.056-.074l.223-.128c.029-.016.051-.017.065,0l.049.054a.126.126,0,0,0,.077.038.262.262,0,0,0,.148-.05.769.769,0,0,0,.09-.062.67.67,0,0,0,.085-.083.485.485,0,0,0,.065-.1A.25.25,0,0,0,191.572,268.415Z" transform="translate(-188.541 -259.355)" fill="#fafafa"/>
            <path id="Path_2048" data-name="Path 2048" d="M195.15,265.728a3.347,3.347,0,0,1,.049-.57,2.81,2.81,0,0,1,.142-.524,1.885,1.885,0,0,1,.224-.425.948.948,0,0,1,.294-.277.409.409,0,0,1,.294-.065.387.387,0,0,1,.224.154.924.924,0,0,1,.143.333,2.047,2.047,0,0,1,.051.472v.231a.269.269,0,0,1-.024.111.145.145,0,0,1-.055.073l-.966.558a.563.563,0,0,0,.028.192.229.229,0,0,0,.074.109.153.153,0,0,0,.107.031.287.287,0,0,0,.124-.041.581.581,0,0,0,.15-.12.715.715,0,0,0,.1-.14.8.8,0,0,1,.052-.087.178.178,0,0,1,.055-.047l.231-.134a.042.042,0,0,1,.056.008.116.116,0,0,1,.021.086.913.913,0,0,1-.044.211,1.656,1.656,0,0,1-.126.294,1.8,1.8,0,0,1-.207.3,1.045,1.045,0,0,1-.285.241.436.436,0,0,1-.294.07.35.35,0,0,1-.224-.156.984.984,0,0,1-.142-.358A2.559,2.559,0,0,1,195.15,265.728Zm.709-1.18a.489.489,0,0,0-.143.127.832.832,0,0,0-.1.171,1.028,1.028,0,0,0-.062.19,1.261,1.261,0,0,0-.028.178l.654-.378a1.291,1.291,0,0,0-.022-.15.311.311,0,0,0-.052-.124.145.145,0,0,0-.1-.058A.245.245,0,0,0,195.859,264.547Z" transform="translate(-191.365 -257.674)" fill="#fafafa"/>
            <path id="Path_2049" data-name="Path 2049" d="M200.932,261.688a.583.583,0,0,0-.25.281,1.282,1.282,0,0,0-.077.489v1.337a.284.284,0,0,1-.023.111.145.145,0,0,1-.055.073l-.22.127a.039.039,0,0,1-.055-.01.127.127,0,0,1-.023-.084v-2.4a.277.277,0,0,1,.023-.111.147.147,0,0,1,.055-.073l.22-.127a.039.039,0,0,1,.055.01.129.129,0,0,1,.023.084v.119a1.57,1.57,0,0,1,.161-.283.718.718,0,0,1,.224-.2l.13-.075a.04.04,0,0,1,.055.01.129.129,0,0,1,.023.084v.339a.284.284,0,0,1-.023.111.147.147,0,0,1-.055.073Z" transform="translate(-194.564 -255.845)" fill="#fafafa"/>
            <path id="Path_2050" data-name="Path 2050" d="M207.3,258.419a.039.039,0,0,1,.055.01.129.129,0,0,1,.023.084v.365a.285.285,0,0,1-.023.111.145.145,0,0,1-.055.073l-1.266.731a.039.039,0,0,1-.055-.01.129.129,0,0,1-.023-.084v-3.321a.284.284,0,0,1,.023-.111.146.146,0,0,1,.055-.073l.234-.135a.039.039,0,0,1,.055.01.129.129,0,0,1,.023.084v2.817Z" transform="translate(-198.17 -252.756)" fill="#fafafa"/>
            <path id="Path_2051" data-name="Path 2051" d="M211.412,254.913a.486.486,0,0,1,.288-.079.346.346,0,0,1,.222.113.7.7,0,0,1,.15.273,1.457,1.457,0,0,1,.066.4c0,.03,0,.068,0,.117v.285c0,.046,0,.085,0,.117a2.706,2.706,0,0,1-.066.48,2.333,2.333,0,0,1-.149.443,1.765,1.765,0,0,1-.222.368,1.026,1.026,0,0,1-.288.254.486.486,0,0,1-.288.079.351.351,0,0,1-.222-.111.677.677,0,0,1-.149-.271,1.621,1.621,0,0,1-.067-.4c0-.03,0-.067,0-.113s0-.092,0-.14,0-.1,0-.145,0-.088,0-.12a2.521,2.521,0,0,1,.065-.48,2.494,2.494,0,0,1,.151-.447,1.759,1.759,0,0,1,.222-.37A1.021,1.021,0,0,1,211.412,254.913Zm.35.954a.823.823,0,0,0-.042-.24.246.246,0,0,0-.083-.12.141.141,0,0,0-.107-.023.362.362,0,0,0-.119.046.582.582,0,0,0-.118.092.608.608,0,0,0-.107.147.967.967,0,0,0-.083.215,1.451,1.451,0,0,0-.042.289c0,.029,0,.064,0,.105s0,.085,0,.129,0,.088,0,.13,0,.075,0,.1a.831.831,0,0,0,.042.24.248.248,0,0,0,.083.12.139.139,0,0,0,.107.023.36.36,0,0,0,.118-.046.6.6,0,0,0,.119-.091.614.614,0,0,0,.107-.146.978.978,0,0,0,.083-.215,1.42,1.42,0,0,0,.042-.289c0-.024,0-.058,0-.1v-.259C211.765,255.927,211.764,255.894,211.763,255.867Z" transform="translate(-201.147 -251.989)" fill="#fafafa"/>
            <path id="Path_2052" data-name="Path 2052" d="M216.445,254.818a.517.517,0,0,0,.125-.105.782.782,0,0,0,.115-.172,1.124,1.124,0,0,0,.119-.51v-.19c-.016.04-.036.085-.061.135a1.158,1.158,0,0,1-.091.153,1.12,1.12,0,0,1-.124.149.728.728,0,0,1-.161.123.336.336,0,0,1-.261.051.357.357,0,0,1-.2-.152.946.946,0,0,1-.13-.31,1.99,1.99,0,0,1-.054-.424c0-.05,0-.11,0-.178s0-.128,0-.181a2.993,2.993,0,0,1,.054-.486,2.724,2.724,0,0,1,.13-.46,1.76,1.76,0,0,1,.2-.383.823.823,0,0,1,.261-.251.455.455,0,0,1,.161-.062.3.3,0,0,1,.124.005.232.232,0,0,1,.091.048.364.364,0,0,1,.061.065v-.118a.277.277,0,0,1,.023-.111.144.144,0,0,1,.055-.073l.22-.127a.039.039,0,0,1,.055.01.127.127,0,0,1,.023.084v2.411a2.534,2.534,0,0,1-.2,1.051,1.326,1.326,0,0,1-.54.627.586.586,0,0,1-.273.089.366.366,0,0,1-.218-.059.434.434,0,0,1-.148-.177.671.671,0,0,1-.06-.265.232.232,0,0,1,.022-.11.148.148,0,0,1,.056-.074l.2-.114a.05.05,0,0,1,.069.009.529.529,0,0,1,.05.062.168.168,0,0,0,.1.084A.3.3,0,0,0,216.445,254.818Zm-.346-1.794a2.206,2.206,0,0,0,0,.288.633.633,0,0,0,.116.413.187.187,0,0,0,.239.008.628.628,0,0,0,.239-.287,1.292,1.292,0,0,0,.111-.491c0-.054.006-.12.006-.2s0-.143-.006-.192a.553.553,0,0,0-.111-.357.179.179,0,0,0-.239-.017.628.628,0,0,0-.239.286A1.431,1.431,0,0,0,216.1,253.024Z" transform="translate(-204.321 -249.729)" fill="#fafafa"/>
            <path id="Path_2053" data-name="Path 2053" d="M221.42,247.157a.039.039,0,0,1,.055.009.13.13,0,0,1,.023.084v.4a.281.281,0,0,1-.023.111.151.151,0,0,1-.055.073l-.248.143a.04.04,0,0,1-.055-.01.129.129,0,0,1-.023-.084v-.4a.28.28,0,0,1,.023-.111.141.141,0,0,1,.055-.073Zm.064,3.474a.277.277,0,0,1-.023.111.148.148,0,0,1-.055.073l-.219.127a.039.039,0,0,1-.055-.01.127.127,0,0,1-.023-.084v-2.4a.275.275,0,0,1,.023-.111.145.145,0,0,1,.055-.073l.219-.127a.039.039,0,0,1,.055.01.126.126,0,0,1,.023.084Z" transform="translate(-207.705 -247.15)" fill="#fafafa"/>
            <path id="Path_2054" data-name="Path 2054" d="M225.028,249.58a.282.282,0,0,1-.023.111.146.146,0,0,1-.055.073l-.22.127a.039.039,0,0,1-.055-.01.127.127,0,0,1-.023-.084v-1.306a.925.925,0,0,0-.081-.447q-.081-.138-.249-.041a.593.593,0,0,0-.241.324,1.55,1.55,0,0,0-.088.545v1.306a.284.284,0,0,1-.023.111.146.146,0,0,1-.055.073l-.22.127a.039.039,0,0,1-.055-.01.128.128,0,0,1-.023-.084V248a.279.279,0,0,1,.023-.111.148.148,0,0,1,.055-.073l.22-.127a.039.039,0,0,1,.055.009.13.13,0,0,1,.023.084v.118a1.77,1.77,0,0,1,.177-.323.735.735,0,0,1,.24-.226.411.411,0,0,1,.295-.073.3.3,0,0,1,.191.152.908.908,0,0,1,.1.324,3.011,3.011,0,0,1,.03.443Z" transform="translate(-209.294 -247.227)" fill="#fafafa"/>
          </g>
          <g id="Group_1692" data-name="Group 1692" transform="translate(45.203 8.34)">
            <path id="Path_2055" data-name="Path 2055" d="M271.507,209.928l-3.6,2.076.557-5.043a1.7,1.7,0,0,1-.7-1.59,4.658,4.658,0,0,1,1.945-3.716c1.074-.62,1.944.038,1.944,1.471a4.885,4.885,0,0,1-.7,2.4Z" transform="translate(-267.764 -201.421)" fill="#455a64"/>
            <path id="Path_2056" data-name="Path 2056" d="M271.757,221.294l-3.164-1.827-.431,3.9Z" transform="translate(-268.014 -212.787)" fill="#37474f"/>
            <path id="Path_2057" data-name="Path 2057" d="M270.2,201.654a4.245,4.245,0,0,0-1.659,2.2l2.9,1.674h0a4.885,4.885,0,0,0,.7-2.4C272.141,201.693,271.271,201.034,270.2,201.654Z" transform="translate(-268.251 -201.421)" fill="#37474f"/>
          </g>
        </g>
        <g id="Group_1699" data-name="Group 1699" transform="translate(36.616 35.36)">
          <g id="Group_1695" data-name="Group 1695">
            <g id="Group_1694" data-name="Group 1694">
              <path id="Path_2058" data-name="Path 2058" d="M206.057,155.931c-1.23-.712-2.929-.611-4.807.473a15.019,15.019,0,0,0-6.795,11.771c0,2.175.767,3.7,2,4.406.322.184,2.07,1.2,2.395,1.389,1.229.711,2.928.609,4.8-.474a15.022,15.022,0,0,0,6.795-11.771c0-2.166-.76-3.687-1.989-4.4" transform="translate(-194.455 -155.477)" fill="#27debf"/>
              <path id="Path_2059" data-name="Path 2059" d="M207.756,160.176a15.022,15.022,0,0,0-6.795,11.771c0,4.334,3.043,6.091,6.8,3.924a15.012,15.012,0,0,0,6.795-11.771C214.548,159.766,211.505,158.01,207.756,160.176Z" transform="translate(-198.552 -157.852)" fill="#27debf"/>
              <path id="Path_2060" data-name="Path 2060" d="M216.686,183.476v.495a10.908,10.908,0,0,1-3.752,3.93,3.788,3.788,0,0,1-3.752.4v-1.025a6.679,6.679,0,0,1,3.057-5.3l.987-.567a2.346,2.346,0,0,1,2.392-.184A2.469,2.469,0,0,1,216.686,183.476Z" transform="translate(-203.73 -171.537)" fill="#27debf"/>
              <path id="Path_2061" data-name="Path 2061" d="M207.743,155.932l2.408,1.4c-1.23-.712-2.929-.612-4.806.473a14.816,14.816,0,0,0-5.8,7.117l-2.408-1.4a14.8,14.8,0,0,1,5.8-7.115C204.815,155.321,206.514,155.22,207.743,155.932Z" transform="translate(-196.141 -155.477)" fill="#fff" opacity="0.4"/>
              <path id="Path_2062" data-name="Path 2062" d="M198.763,195.524c-.424-.245-2.007-1.167-2.3-1.336-1.238-.706-2-2.231-2-4.405l2.409,1.4C196.864,193.293,197.588,194.793,198.763,195.524Z" transform="translate(-194.454 -177.084)" opacity="0.2"/>
              <path id="Path_2063" data-name="Path 2063" d="M195.446,177.2l2.408,1.4a12.617,12.617,0,0,0-.991,4.655h0l-2.409-1.4A12.629,12.629,0,0,1,195.446,177.2Z" transform="translate(-194.454 -169.162)" opacity="0.1"/>
            </g>
          </g>
          <g id="Group_1698" data-name="Group 1698" transform="translate(5.452 4.341)">
            <g id="Group_1696" data-name="Group 1696" transform="translate(1.534)">
              <path id="Path_2064" data-name="Path 2064" d="M214.69,172.5a1.294,1.294,0,0,1-.653-.171,1.6,1.6,0,0,1-.71-1.474,4.231,4.231,0,0,1,1.941-3.361h0a1.453,1.453,0,0,1,2.341,1.353,4.234,4.234,0,0,1-1.94,3.361A1.984,1.984,0,0,1,214.69,172.5Z" transform="translate(-213.327 -167.204)" fill="#fff"/>
            </g>
            <g id="Group_1697" data-name="Group 1697" transform="translate(0 5.098)">
              <path id="Path_2065" data-name="Path 2065" d="M215.618,181.224a2.346,2.346,0,0,0-2.392.184l-.987.567a6.679,6.679,0,0,0-3.057,5.3V188.3a3.788,3.788,0,0,0,3.752-.4,10.908,10.908,0,0,0,3.752-3.93v-.495A2.469,2.469,0,0,0,215.618,181.224Z" transform="translate(-209.182 -180.975)" fill="#fff"/>
            </g>
          </g>
        </g>
      </g>
    </g>
    <g id="Character" transform="translate(120.352 83.135)">
      <g id="Character-2" data-name="Character" transform="translate(0 0)">
        <g id="Group_1706" data-name="Group 1706" transform="translate(15.432)">
          <g id="Group_1705" data-name="Group 1705">
            <path id="Path_2066" data-name="Path 2066" d="M363.722,218.635a38.425,38.425,0,0,1-4.1,6.007,43.177,43.177,0,0,1-8.513,2.592,1.363,1.363,0,0,1-.92-.217,7.722,7.722,0,0,0-2.038-.812c-.595-.206-.847-.49-.959-.382a.676.676,0,0,0,.062.942,4.92,4.92,0,0,0,.942.7,5.579,5.579,0,0,1-2.482.042c-1.587-.416-2.336.346-1.263,2.07.385.617,1.9,1.6,4.964,1.338a27.209,27.209,0,0,0,3.258-.385c2.941-.627,6.211-1.236,8.221-1.836a5.219,5.219,0,0,0,1.952-1.353c3.381-3.854,4.5-6.6,5.983-9.1l-.128-4.078C366.3,214.1,365.023,216.435,363.722,218.635Z" transform="translate(-343.947 -199.693)" fill="#ffa8a7"/>
            <path id="Path_2067" data-name="Path 2067" d="M397.946,213.9a3.862,3.862,0,0,0-3.665,1.567c-1.646,2.106-4.556,7.164-4.556,7.164a4.911,4.911,0,0,0,3.523,2.953l4.127-5.574S399.329,216.155,397.946,213.9Z" transform="translate(-372.779 -199.499)" fill="#003254"/>
            <g id="Group_1700" data-name="Group 1700" transform="translate(15.648 29.691)">
              <rect id="Rectangle_1260" data-name="Rectangle 1260" width="2.69" height="4.797" transform="translate(15.751 41.558)" fill="#ffa8a7"/>
              <path id="Path_2068" data-name="Path 2068" d="M406.035,358.208l-2.689.1-.135-5.076,2.823-.1Z" transform="translate(-396.922 -316.906)" fill="#ffa8a7"/>
              <path id="Path_2069" data-name="Path 2069" d="M412.892,255.3c0,2.676-.394,24.208-.394,24.208a17.436,17.436,0,0,1,.606,5.147c-.2,4.017-.476,14.572-.476,14.572a3.414,3.414,0,0,1-3,.061s-2.181-14.792-2.663-18.773c-.421-3.474-1.5-15-1.5-15l-1.458,13.6a16.563,16.563,0,0,1,.334,4.453c-.126,1.841-.991,11.43-.991,11.43a3.548,3.548,0,0,1-3.106.248s-1.53-14.442-1.561-16.131c-.036-1.926.895-23.846.895-23.846Z" transform="translate(-394.072 -255.269)" fill="#003254"/>
              <path id="Path_2070" data-name="Path 2070" d="M421.527,376.071v-.4c-.257.117-.855,2.493-1.923,3.507-.849.806-2.006,1.737-2.3,2.636-.306.935,1.612,1.451,2.4,1.3a5.648,5.648,0,0,0,2.918-1.472c.4-.626.589-1.55.914-2.009s1.076-.971,1.253-1.5a3.518,3.518,0,0,0-.154-1.471c-.124-.5-.26-1.04-.422-.994,0,.06,0,.305,0,.305a2.078,2.078,0,0,1-1.345.474C422.479,376.465,421.524,376.384,421.527,376.071Z" transform="translate(-405.776 -331.099)" fill="#263238"/>
              <path id="Path_2071" data-name="Path 2071" d="M392.615,364.458c-.14,0-.254.21-.562.557a5.9,5.9,0,0,1-1.582,1.186c-1.007.525-2.966,1.333-3.852,1.749-.554.26-.528.957.045,1.353a5,5,0,0,0,3.614.3c.9-.211,2.081-1.08,2.826-1.033a5.369,5.369,0,0,0,2.688-.359c.55-.395.33-1.237.174-1.962-.17-.79-.382-2.023-.633-1.969v.273c-.324.51-1.992.717-2.7.342Z" transform="translate(-386.219 -323.923)" fill="#263238"/>
              <path id="Path_2072" data-name="Path 2072" d="M410.641,279.141a9.845,9.845,0,0,1-3.746-2.237,7.909,7.909,0,0,0,2.872,2.721l-.46,12.145Z" transform="translate(-399.241 -268.895)" fill="#021726"/>
            </g>
            <g id="Group_1701" data-name="Group 1701" transform="translate(20.821 14.405)">
              <path id="Path_2073" data-name="Path 2073" d="M412.334,214.376s2.212.512,2.062,4.522l-.465,6.388.013,9.587c-1.978,2.242-10.748,2.078-13.751-.179,0,0,.34-11.346.543-15.712.144-3.1.858-4.666,3.909-5.008l3.751.165Z" transform="translate(-400.193 -213.975)" fill="#27debf"/>
            </g>
            <g id="Group_1704" data-name="Group 1704" transform="translate(21.235)">
              <path id="Path_2074" data-name="Path 2074" d="M411.431,185.437a4.091,4.091,0,0,1-4,4.171c-2.212,0-3.521-1.919-4.005-4.171-.885-4.12,1.793-4.171,4.005-4.171A4.091,4.091,0,0,1,411.431,185.437Z" transform="translate(-402.531 -178.969)" fill="#263238"/>
              <g id="Group_1702" data-name="Group 1702">
                <path id="Path_2075" data-name="Path 2075" d="M428.126,197.094a35.213,35.213,0,0,1-.861,3.5,1.31,1.31,0,0,1-.755.634l.043-2.114Z" transform="translate(-417.182 -188.938)" fill="#263238"/>
                <path id="Path_2076" data-name="Path 2076" d="M428.135,185.451s.441-.11.908.621a4.562,4.562,0,0,1-.138,3.685l-1.157.138Z" transform="translate(-417.963 -181.601)" fill="#263238"/>
                <path id="Path_2077" data-name="Path 2077" d="M429.943,185.873l1.418.026a.669.669,0,0,0-.646-.75A.786.786,0,0,0,429.943,185.873Z" transform="translate(-419.345 -181.415)" fill="#263238"/>
                <path id="Path_2078" data-name="Path 2078" d="M430.107,184.072l1.051-1.011a.679.679,0,0,0-1-.039A.773.773,0,0,0,430.107,184.072Z" transform="translate(-419.335 -179.95)" fill="#263238"/>
                <path id="Path_2079" data-name="Path 2079" d="M412.777,186.751c.232.144.563-.32.849-.632a.988.988,0,0,1,1.651.416,1.9,1.9,0,0,1-1,2.365c-1.194.594-1.573-.269-1.573-.269l-.1,4.761c-1.683,2.6-5.494,2.508-4.123-.126l0-1.449a7.671,7.671,0,0,1-1.709.091,2.378,2.378,0,0,1-1.8-1.967,14.685,14.685,0,0,1-.241-6.37c.422-3.638,4.485-3.676,6.679-2.238S412.777,186.751,412.777,186.751Z" transform="translate(-403.338 -178.456)" fill="#ffa8a7"/>
                <path id="Path_2080" data-name="Path 2080" d="M405.687,179.609c.971-.1,1.93-.295,2.9-.366a1.88,1.88,0,0,1,.63.03c.745.2.649,1.067.767,1.672.2,1.042.373,2.808.765,2.817.117,0,.56-.765.849-1.038a1.512,1.512,0,0,0,.259-.8c.074-.432.114-.87.147-1.306.028-.369.065-.746.064-1.116a5.11,5.11,0,0,0-.1-1.246,2.166,2.166,0,0,0-.519-.933c-.024-.027-.049-.055-.074-.082a4.91,4.91,0,0,0-1.737-1.17,10.468,10.468,0,0,0-2.939-.639,29.918,29.918,0,0,1-3-.361.312.312,0,0,0-.174,0,.278.278,0,0,0-.141.222,1.234,1.234,0,0,0,.5,1.22,6.74,6.74,0,0,1-2.087-.471.429.429,0,0,0-.329,0,.329.329,0,0,0-.13.188,1.222,1.222,0,0,0-.018.536,3.084,3.084,0,0,0,.577,1.472,3.625,3.625,0,0,0,2,1.308A5.816,5.816,0,0,0,405.687,179.609Z" transform="translate(-401.312 -175.06)" fill="#263238"/>
                <path id="Path_2081" data-name="Path 2081" d="M415.235,207.966a15.452,15.452,0,0,0,2.808-.839,2.449,2.449,0,0,0,1.006-1.036,3.479,3.479,0,0,1-.571,1.222c-.532.708-3.242,1.23-3.242,1.23Z" transform="translate(-410.081 -194.604)" fill="#f28f8f"/>
              </g>
              <g id="Group_1703" data-name="Group 1703" transform="translate(1.73 5.465)">
                <path id="Path_2082" data-name="Path 2082" d="M416.586,195.237a.418.418,0,1,0,.417-.452A.433.433,0,0,0,416.586,195.237Z" transform="translate(-412.662 -192.948)" fill="#263238"/>
                <path id="Path_2083" data-name="Path 2083" d="M418.395,190.655l.892.513a.569.569,0,0,0-.208-.74A.488.488,0,0,0,418.395,190.655Z" transform="translate(-413.802 -190.164)" fill="#263238"/>
                <path id="Path_2084" data-name="Path 2084" d="M414.125,204.11l-.952.372a.5.5,0,0,0,.647.329A.562.562,0,0,0,414.125,204.11Z" transform="translate(-410.513 -198.821)" fill="#f28f8f"/>
                <path id="Path_2085" data-name="Path 2085" d="M406.086,190.7l.813-.652a.48.48,0,0,0-.707-.113A.577.577,0,0,0,406.086,190.7Z" transform="translate(-405.987 -189.823)" fill="#263238"/>
                <path id="Path_2086" data-name="Path 2086" d="M407.219,194.9a.418.418,0,1,0,.417-.452A.433.433,0,0,0,407.219,194.9Z" transform="translate(-406.763 -192.738)" fill="#263238"/>
                <path id="Path_2087" data-name="Path 2087" d="M410.621,194.731l-.048,2.633-1.494-.343Z" transform="translate(-407.934 -192.914)" fill="#f28f8f"/>
              </g>
            </g>
          </g>
        </g>
        <g id="Group_1711" data-name="Group 1711" transform="translate(0 17.368)">
          <g id="Group_1707" data-name="Group 1707" transform="translate(5.573 9.504)">
            <path id="Path_2088" data-name="Path 2088" d="M317.314,250.1l2.319-1.339.919-1.113-2.319,1.339-.919,1.113" transform="translate(-317.314 -247.653)" fill="#27debf"/>
            <path id="Path_2089" data-name="Path 2089" d="M317.314,250.1l2.319-1.339.919-1.113-2.319,1.339-.919,1.113" transform="translate(-317.314 -247.653)" opacity="0.4"/>
          </g>
          <g id="Group_1708" data-name="Group 1708" transform="translate(11.883 12.545)">
            <path id="Path_2090" data-name="Path 2090" d="M334.361,258.922l2.319-1.339,1.938-1.715-2.319,1.339-1.938,1.715" transform="translate(-334.361 -255.868)" fill="#27debf"/>
            <path id="Path_2091" data-name="Path 2091" d="M334.361,258.922l2.319-1.339,1.938-1.715-2.319,1.339-1.938,1.715" transform="translate(-334.361 -255.868)" opacity="0.4"/>
          </g>
          <path id="Path_2092" data-name="Path 2092" d="M333.859,242.2a4.941,4.941,0,0,1,.958,2.523A4.945,4.945,0,0,1,333.859,242.2Zm5.391.07c-.78-5.312-3.634-10.568-7.037-12.531a4.186,4.186,0,0,0-4.354-.27c-.354.205-1.667.963-2.184,1.26a1.247,1.247,0,0,0-.122.072,3.194,3.194,0,0,0-.282.179,3.922,3.922,0,0,0-.5.415c-.023.019-.045.046-.072.068-.068.068-.137.144-.2.221-.08.091-.16.187-.232.285a5.377,5.377,0,0,0-.426.654c-.065.114-.13.236-.19.362l-19.07-11.009-2.317,1.336v1.477l.2.114.183.107v.312l-.381.221v.86l2.8,5.929,2.77,1.6.921-1.115,2.443,1.461,1.4,2.405,1.545.89,1.937-1.716,2.378,1.374.8,3.3,3.984,2.3a21.883,21.883,0,0,0,.754,2.478c.027.084.057.167.091.259,1.325,3.482,3.433,6.462,5.807,7.835a6.169,6.169,0,0,0,.894.43,4.594,4.594,0,0,0,.5.168,3.764,3.764,0,0,0,.445.1,3.831,3.831,0,0,0,1.412,0l.194-.046a1.652,1.652,0,0,0,.27-.08l.205-.08a1.525,1.525,0,0,0,.213-.1,2,2,0,0,0,.2-.1c.034-.019.068-.038.1-.057a.139.139,0,0,0,.046-.027c.529-.3,1.834-1.058,2.188-1.259,1.762-1.02,2.9-3.6,2.9-7.257A19.046,19.046,0,0,0,339.25,242.274Z" transform="translate(-302.26 -221.979)" fill="#27debf"/>
          <path id="Path_2093" data-name="Path 2093" d="M333.179,248.957a4.368,4.368,0,0,1-1.656-3.507c0-1.408.741-2.122,1.656-1.594a4.37,4.37,0,0,1,1.657,3.507C334.835,248.772,334.094,249.486,333.179,248.957Zm3.753-3.075c-.78-5.309-3.634-10.564-7.037-12.528a4.238,4.238,0,0,0-4.22-.35,1.244,1.244,0,0,0-.122.072,3.184,3.184,0,0,0-.282.179,3.923,3.923,0,0,0-.5.415c-.023.019-.045.046-.072.068-.068.068-.137.144-.2.221-.08.091-.16.187-.232.285a5.377,5.377,0,0,0-.426.654c-.065.114-.13.236-.19.362a9.17,9.17,0,0,0-.735,2.253L302.26,225.587v1.477l.2.114.183.107v.312l-.381.221v.86l2.8,5.929,2.77,1.6.921-1.115,2.443,1.461,1.4,2.405,1.545.89,1.937-1.716,2.378,1.374.8,3.3,3.984,2.3a21.883,21.883,0,0,0,.754,2.478c.027.084.057.167.091.259,1.325,3.482,3.433,6.462,5.807,7.835a6.168,6.168,0,0,0,.894.43,4.6,4.6,0,0,0,.5.168,3.77,3.77,0,0,0,.445.1,3.831,3.831,0,0,0,1.412,0l.194-.046a1.649,1.649,0,0,0,.27-.08l.205-.08a1.525,1.525,0,0,0,.213-.1,2,2,0,0,0,.2-.1c.034-.019.068-.038.1-.057a.139.139,0,0,0,.046-.027c1.69-1.065,2.774-3.611,2.774-7.177A19.653,19.653,0,0,0,336.932,245.882Z" transform="translate(-302.26 -224.251)" fill="#27debf"/>
          <path id="Path_2094" data-name="Path 2094" d="M384.62,278.152c0,1.408-.742,2.124-1.655,1.595a4.363,4.363,0,0,1-1.659-3.505c0-1.408.742-2.123,1.659-1.594a2.345,2.345,0,0,1,.677.62,4.974,4.974,0,0,0,.959,2.523A2.932,2.932,0,0,1,384.62,278.152Z" transform="translate(-352.045 -255.041)" opacity="0.4"/>
          <path id="Path_2095" data-name="Path 2095" d="M379.3,257c0,3.653-1.142,6.237-2.9,7.257-.354.2-1.659.955-2.188,1.259,1.69-1.065,2.774-3.611,2.774-7.177a19.649,19.649,0,0,0-.213-2.816c-.78-5.309-3.634-10.564-7.037-12.528a4.238,4.238,0,0,0-4.22-.35c.517-.3,1.83-1.054,2.184-1.26a4.186,4.186,0,0,1,4.354.27c3.4,1.964,6.256,7.219,7.037,12.531A19.051,19.051,0,0,1,379.3,257Z" transform="translate(-342.1 -233.895)" fill="#fff" opacity="0.4"/>
          <g id="Group_1709" data-name="Group 1709" transform="translate(32.111 22.701)">
            <path id="Path_2096" data-name="Path 2096" d="M391.78,285.05c0,3.566-1.085,6.112-2.774,7.177.529-.3,1.834-1.058,2.188-1.259,1.762-1.02,2.9-3.6,2.9-7.257,0-.135,0-.271-.008-.406l-2.318,1.338C391.775,284.779,391.78,284.915,391.78,285.05Z" transform="translate(-389.006 -283.305)" fill="#27debf"/>
            <path id="Path_2097" data-name="Path 2097" d="M391.78,285.05c0,3.566-1.085,6.112-2.774,7.177.529-.3,1.834-1.058,2.188-1.259,1.762-1.02,2.9-3.6,2.9-7.257,0-.135,0-.271-.008-.406l-2.318,1.338C391.775,284.779,391.78,284.915,391.78,285.05Z" transform="translate(-389.006 -283.305)" opacity="0.1"/>
          </g>
          <g id="Group_1710" data-name="Group 1710" transform="translate(0 3.033)">
            <path id="Path_2098" data-name="Path 2098" d="M323,241.924v.753L302.26,230.7l.38-.221v-.312Z" transform="translate(-302.26 -230.172)" opacity="0.15"/>
            <path id="Path_2099" data-name="Path 2099" d="M323,242.76v.441L302.26,231.229l.38-.221v0Z" transform="translate(-302.26 -230.697)" opacity="0.15"/>
          </g>
          <ellipse id="Ellipse_207" data-name="Ellipse 207" cx="5.475" cy="10.245" rx="5.475" ry="10.245" transform="translate(19.395 12.072) rotate(-17.064)" fill="none" stroke="#000" stroke-miterlimit="10" stroke-width="1" opacity="0.15"/>
          <path id="Path_2100" data-name="Path 2100" d="M323.647,232.988a9.169,9.169,0,0,0-.735,2.253L302.26,223.315l2.317-1.336Z" transform="translate(-302.26 -221.979)" fill="#fff" opacity="0.4"/>
        </g>
        <g id="Group_1712" data-name="Group 1712" transform="translate(31.518 14.806)">
          <path id="Path_2101" data-name="Path 2101" d="M404.1,230.32c1.083-2.048,2.318-6.646,2.932-8.966.873-3.3-.54-5.369-2.144-5.453-1.006.153-4.31,12.175-4.31,12.175-.366.293-5.394,2.841-7.01,3.481a1.256,1.256,0,0,1-.894,0,7.231,7.231,0,0,0-2.063-.306c-.595-.06-.9-.271-.971-.144a.679.679,0,0,0,.292.876,4.759,4.759,0,0,0,1.036.452,6.311,6.311,0,0,1-2,.272c-1.552-.034-2.112.64-.907,2.215.755.986,1.968,1.3,4.7.352.788-.272,1.855-.8,2.847-1.162,2.053-.746,2.58-.826,4.156-1.357C402.034,231.993,403.619,231.229,404.1,230.32Z" transform="translate(-387.405 -215.589)" fill="#ffa8a7"/>
          <path id="Path_2102" data-name="Path 2102" d="M427.3,215.059a3.3,3.3,0,0,1,2.41,1.106c.55.763,1.007,1.839.458,4.8a45.67,45.67,0,0,1-1.679,6.1s-2.2.939-4.535-1.443l1.6-6.211S425.83,215.371,427.3,215.059Z" transform="translate(-410.422 -215.059)" fill="#003254"/>
        </g>
      </g>
    </g>
  </g>
</svg>
