<svg xmlns="http://www.w3.org/2000/svg" width="177.259" height="157.412" viewBox="0 0 177.259 157.412">
  <g id="Group_645" data-name="Group 645" transform="translate(-27.539 -68.542)">
    <ellipse id="Floor" cx="88.63" cy="51.17" rx="88.63" ry="51.17" transform="translate(27.539 123.613)" fill="#daf4ff"/>
    <path id="Shadow" d="M159.342,328.4l43.482-25.1a1.052,1.052,0,0,0,0-1.992L120.5,253.771a3.812,3.812,0,0,0-3.45,0l-43.482,25.1a1.052,1.052,0,0,0,0,1.992L155.891,328.4A3.812,3.812,0,0,0,159.342,328.4Z" transform="translate(-27.262 -111.184)" fill="#e0e0e0"/>
    <g id="Device" transform="translate(48.772 137.8)">
      <g id="Device-2" data-name="Device" transform="translate(0)">
        <path id="Path_303" data-name="Path 303" d="M204.989,324.648c.618.479.551,1.159-.2,1.589l-41.041,23.7a3.311,3.311,0,0,1-2.985,0L82.329,304.648c-.759-.438-.821-1.129-.175-1.606a3.329,3.329,0,0,0-1.318,2.47l0,1.973a3.293,3.293,0,0,0,1.493,2.588l78.431,45.282a3.292,3.292,0,0,0,2.987,0l41.043-23.693a3.292,3.292,0,0,0,1.492-2.586l0-1.977A3.332,3.332,0,0,0,204.989,324.648Z" transform="translate(-80.834 -278.873)" fill="#064168"/>
        <path id="Path_304" data-name="Path 304" d="M206.115,288.02,127.68,242.736a3.311,3.311,0,0,0-2.985,0l-41.041,23.7a.909.909,0,0,0,0,1.722l78.435,45.284a3.311,3.311,0,0,0,2.985,0l41.041-23.7A.908.908,0,0,0,206.115,288.02Zm-10.641-3.663a.779.779,0,0,1,0,1.476l-37.314,21.548a2.84,2.84,0,0,1-2.561,0L94.529,272.123a.78.78,0,0,1,0-1.478L131.846,249.1a2.065,2.065,0,0,1,2.146-.238Z" transform="translate(-82.159 -242.379)" fill="#003254"/>
        <path id="Path_305" data-name="Path 305" d="M82.154,303.042a3.329,3.329,0,0,0-1.318,2.47l0,1.973a3.3,3.3,0,0,0,1.493,2.588l78.431,45.282a3.069,3.069,0,0,0,1.5.358l0-5.424a3.069,3.069,0,0,1-1.493-.356L82.329,304.648C81.57,304.21,81.509,303.518,82.154,303.042Z" transform="translate(-80.834 -278.873)" fill="#011e33"/>
        <path id="Path_306" data-name="Path 306" d="M142.326,276.745a.61.61,0,0,0,0-1.155,2.212,2.212,0,0,0-2,0,.61.61,0,0,0,0,1.155A2.211,2.211,0,0,0,142.326,276.745Z" transform="translate(-116.374 -262.214)"/>
        <path id="Path_307" data-name="Path 307" d="M328.05,382.665c1.3-.751,1.3-1.969,0-2.721a5.208,5.208,0,0,0-4.713,0c-1.3.751-1.3,1.97,0,2.721A5.208,5.208,0,0,0,328.05,382.665Z" transform="translate(-226.136 -324.798)" fill="none" stroke="#e6e6e6" stroke-miterlimit="10" stroke-width="1"/>
        <path id="Path_308" data-name="Path 308" d="M140.584,280.057l7.725-4.461c.461-.266.484-.684.051-.934a1.79,1.79,0,0,0-1.617.03l-7.726,4.461c-.461.266-.484.684-.051.934A1.79,1.79,0,0,0,140.584,280.057Z" transform="translate(-115.62 -261.693)"/>
        <path id="Path_309" data-name="Path 309" d="M150.546,258.328a2.065,2.065,0,0,0-2.146.238l-37.318,21.546a.78.78,0,0,0,0,1.478l61.068,35.258a2.84,2.84,0,0,0,2.561,0L212.025,295.3a.779.779,0,0,0,0-1.476Z" transform="translate(-98.712 -251.847)" fill="#27debf"/>
        <path id="Path_310" data-name="Path 310" d="M150.546,258.328a2.065,2.065,0,0,0-2.146.238l-37.318,21.546a.78.78,0,0,0,0,1.478l61.068,35.258a2.84,2.84,0,0,0,2.561,0L212.025,295.3a.779.779,0,0,0,0-1.476Z" transform="translate(-98.712 -251.847)" fill="#fff"/>
      </g>
      <g id="Group_640" data-name="Group 640" transform="translate(16.206 8.942)">
        <g id="Group_635" data-name="Group 635">
          <g id="Group_628" data-name="Group 628" transform="translate(0 18.818)">
            <path id="Path_311" data-name="Path 311" d="M121.974,317.475l-.4-.23a.1.1,0,0,1,0-.18l.043-.025a.344.344,0,0,1,.311,0l.4.229a.1.1,0,0,1,0,.18l-.043.025A.344.344,0,0,1,121.974,317.475Z" transform="translate(-121.512 -315.033)" fill="#455a64"/>
            <path id="Path_312" data-name="Path 312" d="M123.313,316.2l-.687-.4a.1.1,0,0,1,0-.179l.043-.025a.343.343,0,0,1,.311,0l.687.4a.1.1,0,0,1,0,.18l-.043.025A.345.345,0,0,1,123.313,316.2Z" transform="translate(-122.144 -314.162)" fill="#455a64"/>
            <path id="Path_313" data-name="Path 313" d="M124.659,314.916l-.976-.563a.1.1,0,0,1,0-.18l.043-.025a.345.345,0,0,1,.311,0l.976.564a.1.1,0,0,1,0,.18l-.043.025A.342.342,0,0,1,124.659,314.916Z" transform="translate(-122.779 -313.292)" fill="#455a64"/>
            <path id="Path_314" data-name="Path 314" d="M125.364,313.271l-1.685-.973a.1.1,0,0,1,0-.18l.044-.025a.343.343,0,0,1,.311,0l1.684.973a.1.1,0,0,1,0,.18l-.043.025A.342.342,0,0,1,125.364,313.271Z" transform="translate(-122.777 -312.056)" fill="#455a64"/>
          </g>
          <g id="Group_629" data-name="Group 629" transform="translate(3.202 16.945)">
            <path id="Path_315" data-name="Path 315" d="M130.969,311a.137.137,0,0,1-.078-.02l-.247-.143-.794.459a.112.112,0,0,1-.118.008l-.089-.051a.128.128,0,0,1-.039-.031.116.116,0,0,1-.012-.039l-.041-1a.078.078,0,0,1,.008-.042.12.12,0,0,1,.046-.037l.111-.064a.2.2,0,0,1,.092-.031.155.155,0,0,1,.083.022l.864.5.175-.1a.191.191,0,0,1,.088-.03.156.156,0,0,1,.08.023l.059.034c.026.015.038.029.036.044s-.019.032-.053.051l-.175.1.247.143c.026.015.038.03.035.045s-.022.032-.056.053l-.134.077A.207.207,0,0,1,130.969,311Zm-.484-.315-.616-.356.04.689Z" transform="translate(-129.55 -308.949)" fill="#455a64"/>
            <path id="Path_316" data-name="Path 316" d="M133.38,308.77a1.444,1.444,0,0,1-.8-.195q-.369-.213-.335-.464t.457-.5a2.312,2.312,0,0,1,.349-.167,1.608,1.608,0,0,1,.332-.092.081.081,0,0,1,.051,0,.038.038,0,0,1,.016.021l.036.1a.024.024,0,0,1-.01.029.247.247,0,0,1-.043.013,1.607,1.607,0,0,0-.488.187q-.286.165-.31.34c-.014.117.072.23.262.339a1.075,1.075,0,0,0,.584.154,1.225,1.225,0,0,0,.572-.17,1.566,1.566,0,0,0,.181-.121.566.566,0,0,0,.116-.113l-.4-.232-.331.191a.187.187,0,0,1-.088.03.151.151,0,0,1-.08-.023l-.057-.033c-.027-.016-.04-.031-.037-.045s.02-.031.053-.05l.529-.305a.215.215,0,0,1,.1-.032.179.179,0,0,1,.094.027l.573.331a.119.119,0,0,1,.041.032.034.034,0,0,1,0,.036,1.255,1.255,0,0,1-.5.435A1.867,1.867,0,0,1,133.38,308.77Z" transform="translate(-131.166 -307.355)" fill="#455a64"/>
          </g>
          <g id="Group_631" data-name="Group 631" transform="translate(16.149 9.794)">
            <g id="Group_630" data-name="Group 630" transform="translate(0.24 0.105)">
              <path id="Path_317" data-name="Path 317" d="M162.7,290.389l.938.542a.282.282,0,0,0,.255,0l.941-.542a.078.078,0,0,0,0-.147l-.94-.543a.283.283,0,0,0-.254,0l-.941.543A.078.078,0,0,0,162.7,290.389Z" transform="translate(-162.647 -289.669)" fill="#455a64"/>
            </g>
            <path id="Path_318" data-name="Path 318" d="M162.987,289.5a.938.938,0,0,0-.806,0c-.181.1-.181.269,0,.374l.323.186.238-.046-.323-.186a.15.15,0,0,1,0-.282.347.347,0,0,1,.165-.045.341.341,0,0,1,.165.045l.323.186.238-.045Z" transform="translate(-162.045 -289.405)" fill="#455a64"/>
          </g>
          <g id="Group_634" data-name="Group 634" transform="translate(31.198)">
            <path id="Path_319" data-name="Path 319" d="M202.805,264.823a.925.925,0,0,0-.453.1l-2.38,1.374c-.206.118-.206.3,0,.422l.867.5a.928.928,0,0,0,.453.1,1.162,1.162,0,0,0,.22-.02.74.74,0,0,0,.233-.082l2.38-1.373c.205-.119.206-.3,0-.423l-.867-.5A.928.928,0,0,0,202.805,264.823Zm-1.514,2.4a.391.391,0,0,1-.192-.052l-.867-.5a.171.171,0,0,1,0-.321l2.38-1.374a.4.4,0,0,1,.122-.045.385.385,0,0,1,.07-.007.4.4,0,0,1,.192.052l.867.5a.171.171,0,0,1,0,.322l-2.38,1.374A.384.384,0,0,1,201.291,267.223Z" transform="translate(-199.818 -264.823)" fill="#455a64"/>
            <g id="Group_632" data-name="Group 632" transform="translate(0.649 0.269)">
              <path id="Path_320" data-name="Path 320" d="M202.342,267.461a.19.19,0,0,0-.034-.019l-.781-.451a.128.128,0,0,1,0-.238l2.143-1.236a.191.191,0,0,1,.043-.019.217.217,0,0,0,.034.019l.78.45a.128.128,0,0,1,0,.238l-2.143,1.236A.19.19,0,0,1,202.342,267.461Z" transform="translate(-201.447 -265.498)" fill="#455a64"/>
            </g>
            <g id="Group_633" data-name="Group 633" transform="translate(3.406 0.016)">
              <path id="Path_321" data-name="Path 321" d="M208.526,264.884a.6.6,0,0,1,.48.094l.161.093c.178.1.254.229.169.283l-.153.1-.815-.475Z" transform="translate(-208.368 -264.862)" fill="#455a64"/>
            </g>
          </g>
        </g>
        <g id="Group_636" data-name="Group 636" transform="translate(16.754 9.907)">
          <path id="Path_322" data-name="Path 322" d="M167.955,317.095a3.88,3.88,0,0,0,1.675-.463c.972-.561,1.223-1.327-.319-2.287a1.9,1.9,0,0,1-1.014,1.364,4.028,4.028,0,0,1-4.041.261c-1.157-.668-.79-1.732.534-2.5a5.632,5.632,0,0,1,5.616.018c2.25,1.3,1.744,2.675.153,3.593a6.323,6.323,0,0,1-2.719.813Zm.563-3.165a3.158,3.158,0,0,0-2.914,0c-.632.364-.762.892-.06,1.3a2.2,2.2,0,0,0,2.264-.108A1.236,1.236,0,0,0,168.518,313.93Z" transform="translate(-163.563 -303.552)" fill="#003254"/>
          <path id="Path_323" data-name="Path 323" d="M182.279,309.057a1.747,1.747,0,0,1,1.608-.109c.41.237.322.635-.188.929a1.776,1.776,0,0,1-1.622.116C181.669,309.756,181.769,309.351,182.279,309.057Zm3.115,1.8a1.749,1.749,0,0,1,1.608-.108c.41.237.322.635-.187.929a1.779,1.779,0,0,1-1.621.116C184.784,311.555,184.885,311.15,185.395,310.855Z" transform="translate(-174.549 -301.185)" fill="#003254"/>
          <path id="Path_324" data-name="Path 324" d="M189.842,302.618c-1.958-1.131-1.959-2.308-.356-3.234a5.508,5.508,0,0,1,5.6.206c1.959,1.131,2.014,2.34.412,3.265A5.6,5.6,0,0,1,189.842,302.618Zm3.909-2.257c-1.639-.946-2.693-.937-3.445-.5s-.768,1.043.872,1.989,2.76.963,3.5.535S195.39,301.307,193.751,300.361Z" transform="translate(-178.46 -295.119)" fill="#003254"/>
          <path id="Path_325" data-name="Path 325" d="M205.476,293.591c-1.959-1.131-1.959-2.309-.356-3.234a5.509,5.509,0,0,1,5.6.206c1.959,1.131,2.014,2.339.411,3.265A5.6,5.6,0,0,1,205.476,293.591Zm3.91-2.257c-1.639-.947-2.693-.938-3.446-.5s-.768,1.043.871,1.989,2.76.962,3.5.535S211.025,292.28,209.386,291.334Z" transform="translate(-187.865 -289.689)" fill="#003254"/>
        </g>
        <g id="Group_639" data-name="Group 639" transform="translate(23.826 13.81)">
          <g id="Group_638" data-name="Group 638">
            <path id="Path_326" data-name="Path 326" d="M181.81,317.87l31.347-18.1a2.652,2.652,0,0,1,2.4,0l8.012,4.626a.731.731,0,0,1,0,1.384l-31.342,18.1a2.651,2.651,0,0,1-2.4,0l-8.016-4.626A.73.73,0,0,1,181.81,317.87Z" transform="translate(-181.314 -299.487)" fill="#ff6d85"/>
            <path id="Path_327" data-name="Path 327" d="M190.659,338.872l5.607,3.237a1.145,1.145,0,0,0,1.035,0l8.265-4.771a.316.316,0,0,0,0-.6l-5.608-3.237a1.144,1.144,0,0,0-1.035,0l-8.264,4.771A.315.315,0,0,0,190.659,338.872Z" transform="translate(-186.807 -319.876)" fill="#fafafa"/>
            <path id="Path_328" data-name="Path 328" d="M199.127,337.317l6.652-.264-6.625-.1.266-3.575-1.086,4.41-7.888.78,6.44-.3-.159,3.964.5-3.98,1.842-.087Z" transform="translate(-186.808 -319.876)" fill="#27debf"/>
            <g id="Group_637" data-name="Group 637" transform="translate(15.531 3.715)">
              <path id="Path_329" data-name="Path 329" d="M220.581,322.139l8.1-4.657a1.442,1.442,0,0,1,1.3-.017c.352.2.339.54-.03.753l-8.1,4.657a1.442,1.442,0,0,1-1.3.017C220.2,322.689,220.213,322.352,220.581,322.139Z" transform="translate(-220.296 -313.928)" fill="#fafafa"/>
              <path id="Path_330" data-name="Path 330" d="M226.836,318.46l16.416-9.485a1.442,1.442,0,0,1,1.3-.017c.352.2.339.541-.029.753L228.111,319.2a1.444,1.444,0,0,1-1.3.017C226.454,319.01,226.468,318.673,226.836,318.46Z" transform="translate(-224.059 -308.811)" fill="#fafafa"/>
              <path id="Path_331" data-name="Path 331" d="M233.091,322.072l16.416-9.485a1.442,1.442,0,0,1,1.3-.017c.352.2.339.541-.029.753l-16.416,9.485a1.442,1.442,0,0,1-1.3.017C232.709,322.621,232.723,322.284,233.091,322.072Z" transform="translate(-227.822 -310.983)" fill="#fafafa"/>
            </g>
          </g>
        </g>
      </g>
    </g>
    <g id="Envelope" transform="translate(85.708 68.542)">
      <g id="Group_642" data-name="Group 642" transform="translate(0.001 1.44)">
        <path id="Path_332" data-name="Path 332" d="M173.547,135.212l53.14-30.68,2.126,1.227a2.218,2.218,0,0,1,1,1.731v39.2a2.218,2.218,0,0,1-1,1.732l-51.141,29.526a2.217,2.217,0,0,1-2,0l-1.127-.651a2.218,2.218,0,0,1-1-1.731Z" transform="translate(-173.547 -91.633)" fill="#fe9900"/>
        <path id="Path_333" data-name="Path 333" d="M173.547,135.212l53.14-30.68,2.126,1.227a2.218,2.218,0,0,1,1,1.731v39.2a2.218,2.218,0,0,1-1,1.732l-51.141,29.526a2.217,2.217,0,0,1-2,0l-1.127-.651a2.218,2.218,0,0,1-1-1.731Z" transform="translate(-173.547 -91.633)" fill="#27debf"/>
        <path id="Path_334" data-name="Path 334" d="M226.394,81.609l.218-.118-.826-.48h0a1.433,1.433,0,0,0-.219-.1l-23.387-8.666a1.61,1.61,0,0,0-1.8.571l-26.161,38.2a4.524,4.524,0,0,0-.675,2.181v2.537l.811.471,52.329-31.151V82.517A1.712,1.712,0,0,0,226.394,81.609Z" transform="translate(-173.547 -72.157)" fill="#fe9900"/>
        <path id="Path_335" data-name="Path 335" d="M201.748,73.556a1.334,1.334,0,0,0-.271.287l-26.163,38.2a4.067,4.067,0,0,0-.486,1.092l-.813-.47a5.217,5.217,0,0,1,.211-.578c0-.008,0-.012.008-.016.036-.08.071-.155.112-.231.008-.012.012-.024.02-.036a2.089,2.089,0,0,1,.139-.231l26.16-38.2a1.232,1.232,0,0,1,.132-.159c.044-.044.092-.088.139-.128Z" transform="translate(-173.829 -72.716)" fill="#2ab8a0"/>
        <path id="Path_336" data-name="Path 336" d="M267.533,81.487a1.327,1.327,0,0,0-.223-.107l-23.391-8.669A1.6,1.6,0,0,0,242.4,73l-.813-.47a1.622,1.622,0,0,1,1.526-.287L266.5,80.906a1.228,1.228,0,0,1,.219.108Z" transform="translate(-214.478 -72.157)" fill="#2ab8a0"/>
        <g id="Group_641" data-name="Group 641" transform="translate(0.185 0.37)">
          <path id="Path_337" data-name="Path 337" d="M174.891,169.925a2.683,2.683,0,0,1,.139-.23A2.683,2.683,0,0,0,174.891,169.925Z" transform="translate(-174.54 -131.205)" fill="#fe9900"/>
          <path id="Path_338" data-name="Path 338" d="M241.236,73.213a1.644,1.644,0,0,1,.14-.127A1.375,1.375,0,0,0,241.236,73.213Z" transform="translate(-214.453 -73.086)" fill="#fe9900"/>
          <path id="Path_339" data-name="Path 339" d="M174.011,171.563a5.08,5.08,0,0,1,.213-.58A5,5,0,0,0,174.011,171.563Z" transform="translate(-174.011 -131.98)" fill="#fe9900"/>
          <path id="Path_340" data-name="Path 340" d="M174.562,170.6c.035-.08.073-.156.112-.229C174.635,170.441,174.6,170.517,174.562,170.6Z" transform="translate(-174.342 -131.61)" fill="#fe9900"/>
          <path id="Path_341" data-name="Path 341" d="M174.545,170.958l.007-.016Z" transform="translate(-174.332 -131.955)" fill="#fe9900" opacity="0.2"/>
          <path id="Path_342" data-name="Path 342" d="M174.011,172.438Z" transform="translate(-174.011 -132.855)" fill="#fe9900" opacity="0.2"/>
          <path id="Path_343" data-name="Path 343" d="M241.588,73.086h0Z" transform="translate(-214.665 -73.086)" fill="#fe9900" opacity="0.2"/>
          <path id="Path_344" data-name="Path 344" d="M174.843,170.31c.007-.012.012-.026.019-.038C174.855,170.284,174.85,170.3,174.843,170.31Z" transform="translate(-174.511 -131.552)" fill="#fe9900" opacity="0.2"/>
          <path id="Path_345" data-name="Path 345" d="M240.906,73.563a1.345,1.345,0,0,1,.132-.158A1.157,1.157,0,0,0,240.906,73.563Z" transform="translate(-214.255 -73.278)" fill="#fe9900" opacity="0.2"/>
        </g>
        <path id="Path_346" data-name="Path 346" d="M202.418,73.994l-26.161,38.2a4.524,4.524,0,0,0-.675,2.181v2.537l53.141-30.682V83.7a1.842,1.842,0,0,0-1.121-1.61l-23.387-8.666A1.61,1.61,0,0,0,202.418,73.994Z" transform="translate(-174.771 -72.868)" fill="#27debf"/>
      </g>
      <g id="Group_643" data-name="Group 643" transform="translate(4.46)">
        <path id="Path_347" data-name="Path 347" d="M186.873,190l-1.7-.986h0l-.017-.013v0a1.034,1.034,0,0,1-.41-.93V134.957a3.062,3.062,0,0,1,.478-1.519l1.733,1a3.023,3.023,0,0,0-.478,1.524v53.111A1.05,1.05,0,0,0,186.873,190Z" transform="translate(-184.739 -107.583)" fill="#e0e0e0"/>
        <path id="Path_348" data-name="Path 348" d="M190.563,95.895l42.683-24.641c.808-.467,1.464-.088,1.464.845v53.11a3.236,3.236,0,0,1-1.464,2.535l-42.682,24.641c-.809.467-1.464.088-1.464-.845V98.43A3.237,3.237,0,0,1,190.563,95.895Z" transform="translate(-187.362 -70.053)" fill="#f0f0f0"/>
        <path id="Path_349" data-name="Path 349" d="M230.649,68.643l1.673.968a1.04,1.04,0,0,0-.979.14L188.659,94.385a2.826,2.826,0,0,0-.987,1.01l-1.733-1a2.929,2.929,0,0,1,.986-1.016l42.683-24.64a1.012,1.012,0,0,1,1.041-.094Z" transform="translate(-185.461 -68.542)" fill="#fafafa"/>
        <path id="Path_350" data-name="Path 350" d="M199.824,109.247l35.5-20.494c.477-.275.863-.08.863.437a1.851,1.851,0,0,1-.863,1.432l-35.5,20.494c-.477.275-.863.08-.863-.436A1.849,1.849,0,0,1,199.824,109.247Z" transform="translate(-193.295 -80.626)" fill="#e0e0e0"/>
        <path id="Path_351" data-name="Path 351" d="M199.824,118.6,235.32,98.1c.477-.275.863-.08.863.436a1.85,1.85,0,0,1-.863,1.432l-35.5,20.494c-.477.275-.863.08-.863-.436A1.849,1.849,0,0,1,199.824,118.6Z" transform="translate(-193.295 -86.251)" fill="#e0e0e0"/>
        <path id="Path_352" data-name="Path 352" d="M199.824,127.946l35.5-20.494c.477-.275.863-.08.863.436a1.85,1.85,0,0,1-.863,1.432l-35.5,20.494c-.477.275-.863.08-.863-.436A1.849,1.849,0,0,1,199.824,127.946Z" transform="translate(-193.295 -91.875)" fill="#e0e0e0"/>
        <path id="Path_353" data-name="Path 353" d="M199.824,137.295l35.5-20.494c.477-.275.863-.08.863.436a1.85,1.85,0,0,1-.863,1.432l-35.5,20.494c-.477.275-.863.08-.863-.436A1.85,1.85,0,0,1,199.824,137.295Z" transform="translate(-193.295 -97.499)" fill="#e0e0e0"/>
        <path id="Path_354" data-name="Path 354" d="M199.824,146.644l35.5-20.494c.477-.275.863-.08.863.436a1.85,1.85,0,0,1-.863,1.432l-35.5,20.494c-.477.275-.863.08-.863-.436A1.85,1.85,0,0,1,199.824,146.644Z" transform="translate(-193.295 -103.124)" fill="#e0e0e0"/>
        <path id="Path_355" data-name="Path 355" d="M199.824,155.993l35.5-20.494c.477-.275.863-.08.863.436a1.851,1.851,0,0,1-.863,1.433l-35.5,20.494c-.477.275-.863.08-.863-.437A1.848,1.848,0,0,1,199.824,155.993Z" transform="translate(-193.295 -108.748)" fill="#e0e0e0"/>
        <path id="Path_356" data-name="Path 356" d="M199.824,165.342l35.5-20.494c.477-.275.863-.08.863.436a1.851,1.851,0,0,1-.863,1.433l-35.5,20.494c-.477.275-.863.08-.863-.436A1.849,1.849,0,0,1,199.824,165.342Z" transform="translate(-193.295 -114.372)" fill="#e0e0e0"/>
        <path id="Path_357" data-name="Path 357" d="M199.824,174.691l35.5-20.494c.477-.275.863-.08.863.437a1.85,1.85,0,0,1-.863,1.432l-35.5,20.494c-.477.275-.863.08-.863-.436A1.849,1.849,0,0,1,199.824,174.691Z" transform="translate(-193.295 -119.997)" fill="#e0e0e0"/>
      </g>
      <g id="Group_644" data-name="Group 644" transform="translate(0 14.806)">
        <path id="Path_358" data-name="Path 358" d="M232.538,195.7a.469.469,0,0,1-.055.079l-22.145-9.822a3.814,3.814,0,0,0-4.785,1.473L181.88,225.419l-.875.506-.008,0a.713.713,0,0,1-.677.076l24.347-39.069a3.825,3.825,0,0,1,4.789-1.477Z" transform="translate(-177.62 -153.488)" fill="#27debf"/>
        <path id="Path_359" data-name="Path 359" d="M203.371,198.806l.056-.047-21.55,34.582-.877.506-.008,0a.724.724,0,0,1-.677.076l22.2-35.629Z" transform="translate(-177.617 -161.408)" fill="#fff" opacity="0.4"/>
        <path id="Path_360" data-name="Path 360" d="M269.319,195.7a.486.486,0,0,1-.056.08l-22.147-9.825a3.813,3.813,0,0,0-4.785,1.474l-.877-.51a3.823,3.823,0,0,1,4.781-1.466Z" transform="translate(-214.398 -153.486)" fill="#2ab8a0"/>
        <path id="Path_361" data-name="Path 361" d="M235.306,107.949h0c-.048-.287-.2-.367-.394-.231a1.151,1.151,0,0,0-.255.263l-.112.155-21.853,30.422-3.263,4.546a1.861,1.861,0,0,1-1.8.673l-2.817-.669-21.5-5.116a1.1,1.1,0,0,0-.438-.016.783.783,0,0,0-.163.052l.594-.343,20.729,4.928,2.817.669a1.851,1.851,0,0,0,1.8-.673l3.263-4.542,21.96-30.578a.879.879,0,0,1,.247-.227l-1.9-1.1.8-.458,1.315.757A2.279,2.279,0,0,1,235.306,107.949Z" transform="translate(-179.057 -105.708)" fill="#27debf"/>
        <path id="Path_362" data-name="Path 362" d="M246.061,187.488l-3.262,4.546a1.861,1.861,0,0,1-1.8.673l-2.817-.67.056-.047.135-.215,1.845.438a1.851,1.851,0,0,0,1.8-.674l3.231-4.494Z" transform="translate(-212.432 -154.64)" fill="#fff" opacity="0.4"/>
        <path id="Path_363" data-name="Path 363" d="M278.365,106.463l-1.314-.757-.8.458,1.9,1.1,0,0,0,0a.871.871,0,0,0-.247.227l-21.961,30.576-.032.044v0l.812.442,21.853-30.422.112-.155a1.141,1.141,0,0,1,.255-.263c.2-.135.346-.056.394.231h0A2.278,2.278,0,0,0,278.365,106.463Z" transform="translate(-223.098 -105.706)" fill="#2ab8a0"/>
        <path id="Path_364" data-name="Path 364" d="M178.235,184.247l-4.688-2.708v40.355a2.218,2.218,0,0,0,1,1.731l1.127.651a2.217,2.217,0,0,0,2,0l.563-.325Z" transform="translate(-173.546 -151.327)" fill="#27debf"/>
        <path id="Path_365" data-name="Path 365" d="M178.235,184.247l-4.688-2.708v40.355a2.218,2.218,0,0,0,1,1.731l1.127.651a2.217,2.217,0,0,0,2,0l.563-.325Z" transform="translate(-173.546 -151.327)" fill="#2ab8a0"/>
        <path id="Path_366" data-name="Path 366" d="M233.753,111.8v38.773a2.01,2.01,0,0,1-.311,1.012,2.071,2.071,0,0,1-.586.653l-.036.024a.65.65,0,0,1-.068.044l-51.139,29.522-.008,0a.949.949,0,0,1-.2.092,1.273,1.273,0,0,1-.012-.179v-39.2a.869.869,0,0,1,1.124-.884l21.5,5.116,2.817.669a1.861,1.861,0,0,0,1.8-.673l3.263-4.546Z" transform="translate(-178.269 -109.372)" fill="#455a64"/>
        <path id="Path_367" data-name="Path 367" d="M234.537,111.13v39.2a2.038,2.038,0,0,1-.311,1.012,2.183,2.183,0,0,1-.586.657l-.04.02a.6.6,0,0,1-.064.044L182.4,181.585l-.008,0a.713.713,0,0,1-.681.08.607.607,0,0,1-.3-.478,1.272,1.272,0,0,1-.012-.179v-39.2a.869.869,0,0,1,1.124-.884l21.5,5.116,2.817.669a1.861,1.861,0,0,0,1.8-.673l3.263-4.546,21.853-30.422.112-.155C234.235,110.4,234.537,110.493,234.537,111.13Z" transform="translate(-178.269 -108.639)" fill="#27debf"/>
        <path id="Path_368" data-name="Path 368" d="M279.6,198.735a.676.676,0,0,0,.065-.042l.038-.023a2.136,2.136,0,0,0,.585-.654,2.052,2.052,0,0,0,.31-1l-22.635-8.859,15.158,14.313Z" transform="translate(-224.329 -155.311)" fill="#27debf"/>
        <path id="Path_369" data-name="Path 369" d="M279.6,198.735a.676.676,0,0,0,.065-.042l.038-.023a2.136,2.136,0,0,0,.585-.654,2.052,2.052,0,0,0,.31-1l-22.635-8.859,15.158,14.313Z" transform="translate(-224.329 -155.311)" fill="#2ab8a0"/>
        <path id="Path_370" data-name="Path 370" d="M181.4,234.549a.689.689,0,0,0,.312.658.711.711,0,0,0,.681-.077l.008,0L200,224.961l4.021-25.384L181.4,233.9Z" transform="translate(-178.268 -162.178)" fill="#27debf"/>
        <path id="Path_371" data-name="Path 371" d="M206.192,190.132,181.706,229.22a.69.69,0,0,1-.311-.657v-.649L203,193.347l.167-.267,2.148-3.442a.02.02,0,0,1,.008-.012Z" transform="translate(-178.267 -156.192)" fill="#2ab8a0"/>
        <path id="Path_372" data-name="Path 372" d="M234.695,196.925a2.138,2.138,0,0,1-.585.654l-.038.023-51.2,29.565-.008,0a.711.711,0,0,1-.681.077l24.488-39.094a3.848,3.848,0,0,1,4.815-1.478Z" transform="translate(-178.738 -154.22)" fill="#27debf"/>
        <path id="Path_373" data-name="Path 373" d="M234.693,212.264a2.078,2.078,0,0,1-.586.653l-.036.024-51.207,29.566-.008,0a.72.72,0,0,1-.681.076l.681-1.084,50.322-29.06.04-.024a2.037,2.037,0,0,0,.529-.574Z" transform="translate(-178.736 -169.559)" fill="#2ab8a0"/>
        <path id="Path_374" data-name="Path 374" d="M173.732,172.436l.813.47a3.974,3.974,0,0,0-.188,1.092v2.534l-.813-.47v-2.538A3.973,3.973,0,0,1,173.732,172.436Z" transform="translate(-173.544 -145.85)" fill="#2ab8a0"/>
        <path id="Path_375" data-name="Path 375" d="M179.762,183.489l-.75-.178-.594.343-.821-.474-2.02-1.163.785-.466Z" transform="translate(-174.768 -151.333)" fill="#27debf"/>
        <path id="Path_376" data-name="Path 376" d="M179.764,183.489h0l-3.4-1.937-.785.466,2.02,1.163.821.474.008,0a.81.81,0,0,1,.153-.049,1.1,1.1,0,0,1,.439.016l1.653.394,18.829,4.478.167-.267Z" transform="translate(-174.768 -151.333)" fill="#2ab8a0"/>
      </g>
    </g>
  </g>
</svg>
